<?xml version="1.0" encoding="UTF-8"?>
<svg width="217px" height="54px" viewBox="0 0 217 54" version="1.1" xmlns="http://www.w3.org/2000/svg" xmlns:xlink="http://www.w3.org/1999/xlink">
    <!-- Generator: Sketch 51.1 (57501) - http://www.bohemiancoding.com/sketch -->
    <title>Group 3</title>
    <desc>Created with Sketch.</desc>
    <defs>
        <polygon id="path-1" points="0 0 217 0 217 54 0 54"></polygon>
    </defs>
    <g id="Page-1" stroke="none" stroke-width="1" fill="none" fill-rule="evenodd">
        <g id="Sample-page" transform="translate(-996.000000, -1260.000000)">
            <g id="Group-3" transform="translate(996.000000, 1260.000000)">
                <mask id="mask-2" fill="white">
                    <use xlink:href="#path-1"></use>
                </mask>
                <g id="Clip-2"></g>
                <path d="M215.313874,45.1230352 C197.346697,45.3327653 179.37952,45.5418054 161.412342,45.7522254 C152.703184,45.8536409 143.972379,46.1337409 135.264618,45.9005542 C132.901581,45.8370832 123.89425,46.5538909 122.677119,43.8198113 C122.170156,42.6807839 123.332122,40.4227364 123.871905,39.3664972 C124.344652,38.443409 124.968231,37.5548159 125.506618,36.6648429 C126.704895,34.6834459 127.903173,32.7020488 129.102148,30.7206517 C130.006443,29.2256352 128.213915,27.5091603 126.713275,28.3611886 C117.36727,33.6658412 108.132993,39.27681 98.6145088,44.2730766 C94.561594,46.4000429 87.9138083,49.4694146 83.5613242,46.3248436 C79.6725091,43.5148748 83.7317086,40.2757873 85.9976818,38.1957343 C87.6149372,36.7110663 89.2845649,35.2815904 90.9765381,33.8817803 C97.7416378,28.2846095 104.961329,23.1986557 111.278122,17.0875083 C113.986815,14.4665726 125.163056,4.51474358 120.198165,0.502966418 C119.612993,0.0296939952 118.775036,-0.207632118 118.083024,0.233214935 C110.432484,5.10667906 103.092686,10.436858 96.1404432,16.2430689 C92.7083143,19.1089197 89.4081635,22.1106811 86.1436258,25.1600457 C83.4139835,27.7106115 80.6312707,30.1625214 77.2054265,31.5837185 C76.4400931,29.3594761 73.7635214,27.9983004 71.0157234,28.5888561 C67.7888938,29.2822071 64.8860739,31.5085192 61.816361,32.679282 C59.4589109,33.5789136 57.0414073,34.2660555 54.5827042,34.7903806 C55.6776336,32.7855269 56.8787042,30.8462138 58.2208307,28.9724413 C59.3066822,27.4567277 57.2550862,25.9009999 55.8326555,26.6122883 C50.2399963,29.4098389 44.4587968,31.7003118 38.4932471,33.5216517 C41.5315366,29.1324985 45.087264,25.1676346 49.166714,21.62844 C50.6373272,20.3528121 48.6793029,17.7822391 47.051573,18.9198867 C35.211252,27.1924955 23.370931,35.4651042 11.5313084,43.737713 C20.3214688,32.9021202 29.1123275,22.0665274 37.9031863,11.2309346 C39.1391716,9.7069422 37.6413249,7.65103576 35.7873469,8.52238134 C23.7047169,14.2002706 12.252649,21.0213266 0.829909517,27.8768777 C-1.08831186,29.0276334 0.664413169,32.0121473 2.59171241,30.8558724 C11.7212451,25.3766747 20.8745199,19.9299025 30.3483129,15.0605778 C20.6391938,27.0289888 10.9300748,38.99671 1.22025744,50.9644311 C0.093904663,52.3532028 1.57289734,54.9051484 3.33609682,53.6736743 C14.3000553,46.0130081 25.2640137,38.352342 36.2286705,30.6916758 C35.0995245,32.2694805 34.0311304,33.8941985 33.0360574,35.5747986 C32.2616462,36.8821619 33.5402277,38.492392 35.0073493,38.1081169 C40.8520937,36.5765355 46.5334367,34.5972082 52.0443953,32.1887621 C51.2944245,33.5078537 50.5884464,34.8517818 49.9418235,36.237104 C49.2686654,37.6810678 50.3684829,39.0022292 51.9131155,38.7711122 C55.6203733,38.2164314 59.2410423,37.3361171 62.7443975,36.005987 C64.0460228,35.5113276 65.3336821,34.9656156 66.5934096,34.3736801 C67.5116699,33.9424917 68.3957137,33.4464525 69.3048962,32.9973266 C69.5276529,32.8876323 75.1594168,30.4440012 73.9667258,33.1159897 C73.3738718,34.4426702 74.350789,36.0577296 75.9380177,35.6499978 C84.0633996,33.5589064 89.7049396,26.355645 95.7703458,21.0979057 C102.571757,15.2020076 109.778878,9.80283851 117.31001,4.85693472 C115.328243,8.19122863 108.968156,14.5065869 108.02336,15.3979396 C104.572377,18.6535847 100.864421,21.6298198 97.1383093,24.56949 C93.3870588,27.5284775 89.6001951,30.4467608 85.9872073,33.5699448 C83.0892755,36.0749772 78.6851174,39.2009208 78.3639009,43.3451591 C78.0587452,47.274838 81.6654483,49.8461008 85.1848643,50.6753624 C89.2699007,51.6384649 93.5197352,50.3959523 97.2465453,48.7657151 C102.318973,46.546302 107.054823,43.4990071 111.857708,40.7725164 C115.460221,38.7276484 119.062036,36.6827804 122.663851,34.6379124 C122.497657,34.913873 122.331462,35.1891436 122.164569,35.4644143 C121.050786,37.3050715 119.53618,39.2002309 118.962878,41.2989112 C118.189864,44.1275074 119.804326,46.4435067 122.286771,47.673601 C125.713314,49.3714486 130.184508,49.1755166 133.895956,49.3079776 C139.379681,49.5045996 144.870389,49.3942153 150.35551,49.3300545 C172.008298,49.0775505 193.661086,48.8250466 215.313874,48.5725427 C217.558898,48.5463264 217.565183,45.0968189 215.313874,45.1230352" id="Fill-1" fill="#FEFEFE" mask="url(#mask-2)"></path>
            </g>
        </g>
    </g>
</svg>